<?xml version="1.0" encoding="UTF-8"?>
<svg width="273px" height="266px" viewBox="0 0 273 266" version="1.1" xmlns="http://www.w3.org/2000/svg" xmlns:xlink="http://www.w3.org/1999/xlink">
    <!-- Generator: Sketch 51.2 (57519) - http://www.bohemiancoding.com/sketch -->
    <title>icon/notes Complate-y</title>
    <desc>Created with Sketch.</desc>
    <defs>
        <polygon id="path-1" points="9.85465116e-05 0.248022816 225.835756 0.248022816 225.835756 175.930851 9.85465116e-05 175.930851"></polygon>
        <polygon id="path-3" points="168 94 273 94 273 199 168 199"></polygon>
    </defs>
    <g id="icon/notes-Complate-y" stroke="none" stroke-width="1" fill="none" fill-rule="evenodd">
        <g id="Group-3" transform="translate(0.000000, 36.000000)">
            <g id="Group-6">
                <g id="Group-3">
                    <mask id="mask-2" fill="white">
                        <use xlink:href="#path-1"></use>
                    </mask>
                    <g id="Clip-2"></g>
                    <path d="M177.502404,165.596567 L10.2653602,165.596567 L10.2653602,155.262283 L175.456907,155.262283 C175.306131,153.654103 175.226308,152.024097 175.226308,150.37458 C175.226308,148.533259 175.324197,146.71674 175.511107,144.927999 L10.2653602,144.927999 L10.2653602,134.593715 L177.679459,134.593715 C178.847235,130.949102 180.409197,127.487696 182.316072,124.259431 L10.2653602,124.259431 L10.2653602,10.5823068 L215.570593,10.5823068 L215.570593,100.456185 C218.883069,99.7759413 222.315773,99.4181271 225.835854,99.4174657 L225.835854,41.5851589 L225.835854,10.5823068 L225.835854,0.248022816 L9.85465116e-05,0.248022816 L9.85465116e-05,10.5823068 L9.85465116e-05,31.2508749 L9.85465116e-05,41.5851589 L9.85465116e-05,170.763709 C9.85465116e-05,173.618617 2.29688924,175.930851 5.13272936,175.930851 L46.1937759,175.930851 L181.569418,175.170248 C179.906282,172.155613 178.536157,168.952481 177.502404,165.596567" id="Fill-1" fill="#FFFFFF" mask="url(#mask-2)"></path>
                </g>
                <path d="M30.7662994,44.7580432 C37.9604658,42.8685072 43.5807857,37.2058308 45.4561881,29.9574468 L86.8926377,29.9574468 C77.0181569,39.2871544 71.4887616,52.3629808 71.6496786,66 C71.4887616,79.6370192 77.0181569,92.7128456 86.8926377,102.042553 L45.4561881,102.042553 C43.5807857,94.7941692 37.9604658,89.1314928 30.7662994,87.2419568 L30.7662994,44.7580432 Z M179.609928,29.9574468 C181.48533,37.2058308 187.10565,42.8685072 194.299816,44.7580432 L194.299816,87.2419568 C187.10565,89.1314928 181.48533,94.7941692 179.609928,102.042553 L138.173478,102.042553 C148.047959,92.7128456 153.577354,79.6370192 153.416437,66 C153.577354,52.3629808 148.047959,39.2871544 138.173478,29.9574468 L179.609928,29.9574468 Z M81.8705234,66 C81.8705234,46.1262597 95.622711,29.9574468 112.533058,29.9574468 C129.443405,29.9574468 143.195592,46.1262597 143.195592,66 C143.195592,85.8737403 129.443405,102.042553 112.533058,102.042553 C95.622711,102.042553 81.8705234,85.8737403 81.8705234,66 Z M25.655877,96.893617 C31.3017081,96.893617 35.8767218,101.503109 35.8767218,107.191489 C35.8767218,110.036338 38.1635745,112.340426 40.9871442,112.340426 L184.078972,112.340426 C186.902541,112.340426 189.189394,110.036338 189.189394,107.191489 C189.189394,101.503109 193.764408,96.893617 199.410239,96.893617 C202.233808,96.893617 204.520661,94.5895299 204.520661,91.7446809 L204.520661,40.2553191 C204.520661,37.4104701 202.233808,35.106383 199.410239,35.106383 C193.764408,35.106383 189.189394,30.4968906 189.189394,24.8085106 C189.189394,21.9636616 186.902541,19.6595745 184.078972,19.6595745 L40.9871442,19.6595745 C38.1635745,19.6595745 35.8767218,21.9636616 35.8767218,24.8085106 C35.8767218,30.4968906 31.3017081,35.106383 25.655877,35.106383 C22.8323072,35.106383 20.5454545,37.4104701 20.5454545,40.2553191 L20.5454545,91.7446809 C20.5454545,94.5895299 22.8323072,96.893617 25.655877,96.893617 Z" id="Fill-4" fill="#FFFFFF"></path>
            </g>
            <mask id="mask-4" fill="white">
                <use xlink:href="#path-3"></use>
            </mask>
            <g id="Clip-2"></g>
            <path d="M250.815106,130.028984 L212.629106,169.646861 C212.152041,170.126993 211.674976,170.37166 210.949837,170.37166 C210.240032,170.37166 209.529886,170.126993 209.28522,169.646861 L190.677293,149.606717 L190.196479,149.126244 C189.719414,148.649179 189.474748,147.927106 189.474748,147.461968 C189.474748,146.984562 189.719414,146.26283 190.196479,145.782358 L193.531847,142.438472 C194.486318,141.495927 195.918195,141.495927 196.875733,142.438472 L197.120399,142.683138 L210.240032,156.759968 C210.717097,157.237374 211.429969,157.237374 211.907375,156.759968 L243.891528,123.597464 L244.127334,123.597464 C245.081805,122.642993 246.513682,122.642993 247.47122,123.597464 L250.815106,126.929424 C251.757992,127.651496 251.757992,129.086099 250.815106,130.028984 M220.507497,94 C191.387098,94 168,117.386757 168,146.507497 C168,175.612902 191.387098,199 220.507497,199 C249.613243,199 273,175.612902 273,146.507497 C273,117.386757 249.613243,94 220.507497,94" id="Fill-1" fill="#FFF9A9" mask="url(#mask-4)"></path>
        </g>
    </g>
</svg>