<?xml version="1.0" encoding="UTF-8"?>
<svg width="273px" height="301px" viewBox="0 0 273 301" version="1.1" xmlns="http://www.w3.org/2000/svg" xmlns:xlink="http://www.w3.org/1999/xlink">
    <!-- Generator: Sketch 51.2 (57519) - http://www.bohemiancoding.com/sketch -->
    <title>icon/Customer service</title>
    <desc>Created with Sketch.</desc>
    <defs>
        <linearGradient x1="50%" y1="0%" x2="50%" y2="97.4756142%" id="linearGradient-1">
            <stop stop-color="#FFFFFF" offset="0%"></stop>
            <stop stop-color="#F0F0F0" offset="51.217034%"></stop>
            <stop stop-color="#CECECE" offset="100%"></stop>
        </linearGradient>
        <polygon id="path-2" points="0 0.668380408 203.186862 0.668380408 203.186862 216.33739 0 216.33739"></polygon>
    </defs>
    <g id="icon/Customer-service" stroke="none" stroke-width="1" fill="none" fill-rule="evenodd">
        <path d="M273,150.501081 C273,225.88805 211.888533,287 136.502162,287 C61.1157896,287 0,225.88805 0,150.501081 C0,75.114112 61.1157896,14 136.502162,14 C211.888533,14 273,75.114112 273,150.501081" id="Fill-1" fill="url(#linearGradient-1)"></path>
        <g id="Group-58" transform="translate(37.000000, 0.000000)">
            <path d="M27.2809189,301 L175.718169,301 L188.316171,266.373902 C190.40059,260.806759 187.560371,254.613361 181.963468,252.525188 L134.53698,234.804367 L124.194446,224 C113.151801,239.630673 89.8393305,241.630673 78.7986748,226 L68.4541513,234.804367 L21.0336302,252.523213 C15.4387168,254.613361 12.5984977,260.806759 14.6849051,266.373902 L27.2809189,301 Z" id="Fill-1" fill="#232427"></path>
            <path d="M115.903496,302 C122.194503,279.115823 125.723164,255.236592 126,232 L79,232 C79.130394,256.766488 82.8596611,280.189653 88.986171,302 L115.903496,302 Z" id="Fill-3" fill="#FFFFFF"></path>
            <g id="Group-7">
                <mask id="mask-3" fill="white">
                    <use xlink:href="#path-2"></use>
                </mask>
                <g id="Clip-6"></g>
                <path d="M202.754706,136.157097 C199.231004,188.552751 175.024706,216.33739 175.024706,216.33739 L28.8259086,216.33739 C28.8259086,216.33739 1.46001821,188.77958 0.0592920994,132.060236 C-0.282930756,118.729021 0.821334853,103.782143 4.05852431,87.1977137 C4.41467484,85.3393026 4.80464972,83.4590044 5.22247995,81.5647781 C7.38524881,71.6956997 10.3080708,63.0284204 13.780041,55.4236588 C18.0757337,46.0261473 23.2150456,38.2442994 28.81795,31.795573 C58.6888321,-2.5372793 101.920333,0.849247187 101.920333,0.849247187 L101.920333,0.986538801 L101.928292,0.849247187 C101.928292,0.849247187 141.248106,-3.00088722 170.518109,24.6683474 C175.307239,29.1989707 179.821795,34.5652821 183.856842,40.9403883 C189.819876,50.3597869 194.722417,61.955954 197.868082,76.2322922 C198.689815,79.9570734 199.398136,83.6122139 200.014933,87.1977137 C203.134733,105.350053 203.737602,121.689745 202.754706,136.157097" id="Fill-5" fill="#83320D" mask="url(#mask-3)"></path>
            </g>
            <path d="M203,136.083388 C199.471003,188.306733 175.228331,216 175.228331,216 L28.8098435,216 C28.8098435,216 1.40283095,188.532817 0,132 C16.0528496,148.204646 47.3555078,168.944848 102.47441,168.944848 C153.054037,168.944848 184.820985,151.48286 203,136.083388" id="Fill-8" fill="#5F0510"></path>
            <path d="M126,182 L126,231.49501 C126,240.1722 120.415365,247.952646 112.106615,250.516771 C105.703542,252.49441 99.2984635,252.49441 92.8953905,250.516771 C84.5846351,247.952646 79,240.1722 79,231.49501 L79,182 L126,182 Z" id="Fill-10" fill="#F9B587"></path>
            <path d="M126,184 L126,222.293655 C107.659368,235.828206 88.6647887,228.534842 79,223.020396 L79,184 L126,184 Z" id="Fill-12" fill="#F5896A"></path>
            <path d="M171,110.927524 C171,111.936057 170.990125,112.938646 170.970374,113.939253 C170.950623,115.082522 170.915072,116.215883 170.87557,117.349244 C168.683232,171.28694 139.132098,214 102.99605,214 C69.1807197,214 41.1365709,176.587188 35.8848355,127.579217 C35.8848355,127.579217 35.8848355,127.573273 35.8789102,127.56931 C35.5194458,124.21678 35.2725609,120.806789 35.1303552,117.349244 C35.0849284,116.215883 35.049377,115.082522 35.0296262,113.939253 C35.0079003,112.942609 35,111.936057 35,110.927524 C35,97.7492263 36.6333905,85.1415722 39.6098347,73.5583024 C39.8369688,72.6448766 42.5586279,61.8323717 42.8074879,60.9308343 C81.6454442,54.257476 121.285283,54.3585274 160.093613,61.2300258 L164.810102,62.066177 C168.240814,74.3904908 171,96.7089908 171,110.927524" id="Fill-14" fill="#F9B587"></path>
            <path d="M92,147 C92,147 93.2200734,139 103.795349,139 C114.372583,139 116,147 116,147 L92,147 Z" id="Fill-16" fill="#F5896A"></path>
            <path d="M128,166.195073 C128,167.648171 127.871588,169.06942 127.61677,170.452849 C126.790118,174.991291 124.665301,179.089823 121.633574,182.338393 C117.251515,187.050012 110.971366,190 103.998997,190 C97.0286335,190 90.7504912,187.050012 86.3664256,182.338393 C83.3326924,179.089823 81.2078753,174.991291 80.385236,170.452849 C80.1304184,169.06942 80,167.648171 80,166.195073 C80,166.129385 80.0040129,166.067679 80.0040129,166 L127.993981,166 C127.993981,166.067679 128,166.129385 128,166.195073" id="Fill-18" fill="#920E08"></path>
            <path d="M128,166.219043 C128,167.850693 127.871588,169.44658 127.61677,171 L80.385236,171 C80.1304184,169.44658 80,167.850693 80,166.219043 C80,166.145284 80.0040129,166.075995 80.0040129,166 L127.993981,166 C127.993981,166.075995 128,166.145284 128,166.219043" id="Fill-20" fill="#FFFFFF"></path>
            <path d="M121,182.539665 C116.649144,187.125571 110.418558,190 103.499004,190 C96.5814417,190 90.348865,187.125571 86,182.539665 C90.1975309,178.541049 96.4778973,176 103.499004,176 C110.520112,176 116.802469,178.541049 121,182.539665" id="Fill-22" fill="#EB5C66"></path>
            <path d="M142,121 C142,126.522804 139.088123,131 135.5,131 C131.909962,131 129,126.522804 129,121 C129,115.477196 131.909962,111 135.5,111 C139.088123,111 142,115.477196 142,121" id="Fill-24" fill="#232427"></path>
            <path d="M78,121 C78,126.522804 75.0896094,131 71.499042,131 C67.9084746,131 65,126.522804 65,121 C65,115.477196 67.9084746,111 71.499042,111 C75.0896094,111 78,115.477196 78,121" id="Fill-26" fill="#232427"></path>
            <path d="M88,97.0079741 L88,102.871665 C88,102.871665 66.5533192,94.0761289 52,108 C52,108 57.360169,91.8777237 88,97.0079741" id="Fill-28" fill="#72241A"></path>
            <path d="M120,97.0079741 L120,102.871665 C120,102.871665 141.446681,94.0761289 156,108 C156,108 150.639831,91.8777237 120,97.0079741" id="Fill-30" fill="#72241A"></path>
            <path d="M33.8714674,109 C33.8714674,109 46.7548391,81.5819655 86.9178492,79.295139 C127.080859,77.0103028 162.699243,80.0574145 164.970566,61.0164494 C166.622077,47.1919961 98.3754558,49.4250852 60.8520913,51.6880284 C49.2043827,52.3905956 39.5982905,59.8183035 33.9308743,70.0702124 C33.911072,70.1080276 33.8912697,70.1378817 33.8714674,70.1557942 C33.1130396,70.9160794 27.8080054,104.430328 33.8714674,109" id="Fill-32" fill="#83320D"></path>
            <path d="M150,68.4384417 C150,68.4384417 150,97.565657 171.697291,107 C171.697291,107 177.818701,69.4636974 163.522586,56 L150,68.4384417 Z" id="Fill-34" fill="#83320D"></path>
            <path d="M64.3094911,294.849765 L69.3716009,301 L90,301 C85.2494974,281.529807 80.6558036,255.907158 79.1902444,226 L52,247.249297 L80.3019786,279.264282 L64.3094911,294.849765 Z" id="Fill-36" fill="#364456"></path>
            <path d="M135.629318,301 L140.69116,294.849765 L124.699519,279.266503 L153,247.251518 L125.809184,226 C124.345712,255.907158 119.750251,281.529807 115,301 L135.629318,301 Z" id="Fill-38" fill="#364456"></path>
            <path d="M32.8811089,301 C27.309517,281.476365 24.932838,262.981032 36,247 L20.1914833,253.077067 C5.32523578,263.00926 3.96684767,271.48779 1.75021435,291.164663 C1.68819663,291.668733 1.6481852,292.154656 1.60417262,292.660742 C1.39611318,295.001643 1.1900543,298.453439 1,301 L32.8811089,301 Z" id="Fill-40" fill="#232427"></path>
            <path d="M166.676624,301 L202,301 C201.824803,298.739428 201.637523,295.546813 201.44823,293.456133 C200.354758,281.343783 197.618057,266.804965 193.010572,260.556911 C188.362813,254.250894 187.206914,254.492741 181.306595,251.968336 L154,243 C167.212284,258.714075 168.458802,280.534294 166.676624,300" id="Fill-42" fill="#232427"></path>
            <path d="M167,164.874613 C178.769716,166.152583 189.330297,157.516723 190.589069,145.586314 L192.876301,123.91113 C194.137059,111.980722 185.617515,101.273945 173.847799,100 L167,164.874613 Z" id="Fill-44" fill="#082E43"></path>
            <path d="M183.426294,118.003844 C184.108267,117.98967 184.798455,118.013968 185.494807,118.088888 C194.409745,119.028425 200.859724,126.913249 199.906606,135.699137 C198.955542,144.48705 190.954693,150.849175 182.039754,149.907613 C181.343403,149.834718 180.663485,149.713226 180,149.559336 L183.426294,118.003844 Z" id="Fill-46" fill="#082E43"></path>
            <path d="M41,164.874613 C29.2321031,166.152583 18.6713737,157.516723 17.4105985,145.586314 L15.1233339,123.91113 C13.8645442,111.980722 22.3842077,101.273945 34.1521046,100 L41,164.874613 Z" id="Fill-48" fill="#082E43"></path>
            <path d="M26.5757598,118.003844 C25.8917334,117.98967 25.2015446,118.013968 24.5051934,118.088888 C15.5902548,119.028425 9.14027621,126.913249 10.0933941,135.699137 C11.0465119,144.48705 19.045307,150.849175 27.9602456,149.907613 C28.6565968,149.834718 29.3365149,149.713226 30,149.559336 L26.5757598,118.003844 Z" id="Fill-50" fill="#082E43"></path>
            <path d="M187,105 L182.067302,105 C182.067302,63.0399345 147.719558,28.9024962 105.500995,28.9024962 C63.2824327,28.9024962 28.9326983,63.0399345 28.9326983,105 L24,105 C24,60.3374286 60.5592966,24 105.500995,24 C150.440703,24 187,60.3374286 187,105" id="Fill-52" fill="#082E43"></path>
            <path d="M94,211 C61.6301972,211 45.9236277,195.226612 38.44718,181.994063 C30.4019596,167.754282 30.0120588,153.698533 30,153.106858 L34.9802789,153 C34.9842985,153.134562 35.3842482,166.580826 42.8908429,179.76984 C52.837332,197.239099 70.0311519,206.096418 94,206.096418 L94,211 Z" id="Fill-54" fill="#082E43"></path>
            <path d="M106.932748,214 L93.0692036,214 C89.7165053,214 87,211.313174 87,208.000965 C87,204.686826 89.7165053,202 93.0692036,202 L106.932748,202 C110.283495,202 113,204.686826 113,208.000965 C113,211.313174 110.283495,214 106.932748,214" id="Fill-56" fill="#082E43"></path>
        </g>
    </g>
</svg>