<?xml version="1.0" encoding="UTF-8"?>
<svg width="123px" height="49px" viewBox="0 0 123 49" version="1.1" xmlns="http://www.w3.org/2000/svg" xmlns:xlink="http://www.w3.org/1999/xlink">
    <!-- Generator: Sketch 51.2 (57519) - http://www.bohemiancoding.com/sketch -->
    <title>icon/logo</title>
    <desc>Created with Sketch.</desc>
    <defs>
        <polygon id="path-1" points="0.204111168 0.41832 40.7494351 0.41832 40.7494351 28 0.204111168 28"></polygon>
        <polygon id="path-3" points="0.193925926 0.181753086 33.7300988 0.181753086 33.7300988 33.7186815 0.193925926 33.7186815"></polygon>
    </defs>
    <g id="icon/logo" stroke="none" stroke-width="1" fill="none" fill-rule="evenodd">
        <g id="Group-11" transform="translate(0.000000, -1.000000)">
            <path d="M92.1219744,38.8993671 L74.0271083,38.8993671 C72.2771028,38.5470973 71.0057667,37.6949442 70.2213959,36.3420369 C69.433292,34.9886942 69.2964108,33.3004992 69.8140706,31.2670015 L70.3002063,29.3702316 C70.8170366,27.3410883 71.8473787,25.6054305 73.3804483,24.1610811 C74.9118586,22.7197798 76.5332788,22 78.2426347,22 L99.6425598,22.0322224 C99.6425598,22.0322224 101.311681,22.0448502 102.399679,23.5087943 C103.329227,24.7659052 102.901992,26.3604808 102.901992,26.3604808 L102.399679,28.5803462 L80.7960914,28.5829588 C80.7960914,28.5829588 78.190371,28.4418767 77.0969805,32.725285 L95.0230264,32.725285 C96.8033117,32.9599863 98.1401849,33.6349159 99.0307423,34.7535574 C99.9250329,35.8700216 100.113763,37.4463089 99.5940292,39.4771939 L98.8009478,42.5870955 C98.2741625,44.6445422 97.2201772,46.3971821 95.642725,47.8389189 C94.0644432,49.2802202 92.4314089,50 90.7465257,50 L65,50 L66.6122947,43.6900611 C66.6122947,43.6900611 83.180728,43.673079 87.3721965,43.673079 C91.565739,43.673079 92.1219744,38.8993671 92.1219744,38.8993671" id="Fill-1" fill="#004D93"></path>
            <path d="M13.7486267,28.3708403 L0,28.3708403 L1.64342919,22 L13.627885,22 L25.5284923,22 L39,22 C39,22 34.8138672,23.1337936 33.4626498,28.3708403 L21.8379038,28.3708403 L16.2590486,50 L8.17102929,50 L13.7486267,28.3708403 Z" id="Fill-3" fill="#004D93"></path>
            <g id="Group-7" transform="translate(32.000000, 22.000000)">
                <mask id="mask-2" fill="white">
                    <use xlink:href="#path-1"></use>
                </mask>
                <g id="Clip-6"></g>
                <path d="M11.9906825,17.1028738 L9.64776495,17.1028738 C9.2927134,18.5532738 9.27496082,19.8916738 9.74413608,20.6468123 C10.2141567,21.3985046 11.4496515,21.7741354 13.4493526,21.7741354 L18.0430433,21.7741354 L31.3532495,21.7741354 L29.6954969,28.0000431 L20.1813835,28.0000431 L8.1836,28.0000431 C4.55911546,28.0000431 2.2191567,27.3465662 1.15949691,26.0409046 C0.0989917526,24.7386892 -0.0772659794,22.7644738 0.623960825,20.1268738 L3.79575464,8.28804308 C4.49740412,5.64785846 5.72909485,3.68010462 7.47899175,2.37272 C9.23142474,1.07136615 11.9234763,0.41832 15.5445794,0.41832 L27.5453216,0.41832 L40.7494351,0.41832 C40.7494351,0.41832 38.7476206,1.11702769 37.0129402,3.40312 C35.6447237,5.20502769 35.4021052,6.63948923 35.4021052,6.63948923 L22.0893629,6.63948923 L17.5007443,6.63948923 C15.4963938,6.63948923 14.0635072,7.01598154 13.1902495,7.77198154 C12.3165691,8.52712 11.6876206,9.56398154 11.3063629,10.8812738 L13.6488577,10.8812738 L30.4258887,10.8812738 L28.7664454,17.1028738 L11.9906825,17.1028738 Z" id="Fill-5" fill="#004D93" mask="url(#mask-2)"></path>
            </g>
            <g id="Group-10" transform="translate(92.000000, 0.000000)">
                <mask id="mask-4" fill="white">
                    <use xlink:href="#path-3"></use>
                </mask>
                <g id="Clip-9"></g>
                <path d="M33.7300988,16.9503852 L23.159037,15.5240642 C19.5336296,14.7000889 18.3914815,11.2207556 18.3612593,10.6599654 L16.9630617,0.181669136 L15.5648642,10.6272247 C15.4569877,11.2572741 14.2468395,15.082484 10.7578519,15.5240642 L0.193925926,16.9503852 L11.2279753,18.424558 C11.995284,18.6461877 15.055284,19.6472988 15.5522716,23.1681877 L16.9630617,33.7186815 L18.5833086,23.4166815 C18.9027407,19.6787802 22.2893086,18.5156444 22.8043457,18.4392494 L33.7300988,16.9503852 Z" id="Fill-8" fill="#D6242F" mask="url(#mask-4)"></path>
            </g>
        </g>
    </g>
</svg>