<?xml version="1.0" encoding="UTF-8"?>
<svg width="273px" height="178px" viewBox="0 0 273 178" version="1.1" xmlns="http://www.w3.org/2000/svg" xmlns:xlink="http://www.w3.org/1999/xlink">
    <!-- Generator: Sketch 51.2 (57519) - http://www.bohemiancoding.com/sketch -->
    <title>icon/notes</title>
    <desc>Created with Sketch.</desc>
    <defs></defs>
    <g id="icon/notes" stroke="none" stroke-width="1" fill="none" fill-rule="evenodd">
        <g id="Group-7" fill="#FFFFFF">
            <path d="M44.2307692,164.764706 L225.769231,164.764706 L225.769231,155.529412 L44.2307692,155.529412 L44.2307692,164.764706 Z M26.0769231,35.4705882 C26.0769231,30.3691595 30.1398991,26.2352941 35.1538462,26.2352941 L35.1538462,44.7058824 C30.1398991,44.7058824 26.0769231,40.5720169 26.0769231,35.4705882 Z M44.2307692,127.823529 L225.769231,127.823529 L225.769231,26.2352941 L44.2307692,26.2352941 L44.2307692,127.823529 Z M243.923077,35.4705882 C243.923077,40.5720169 239.860101,44.7058824 234.846154,44.7058824 L234.846154,26.2352941 C239.860101,26.2352941 243.923077,30.3691595 243.923077,35.4705882 Z M44.2307692,146.294118 L225.769231,146.294118 L225.769231,137.058824 L44.2307692,137.058824 L44.2307692,146.294118 Z M234.392162,173.100704 L234.392162,171.327528 C234.684948,170.721397 234.839473,170.057638 234.846154,169.382353 L234.846154,53.9411765 C244.871724,53.9411765 253,45.6710814 253,35.4705882 C253,25.2700951 244.871724,17 234.846154,17 L35.1538462,17 C25.1282757,17 17,25.2700951 17,35.4705882 C17,45.6710814 25.1282757,53.9411765 35.1538462,53.9411765 L35.1538462,169.382353 C35.1538462,171.933658 37.1847532,174 39.6923077,174 L76,174 L234.392162,173.100704 Z" id="Fill-1"></path>
            <path d="M268.45,0 L4.55,0 C2.0360704,0 0,2.041664 0,4.5625 L0,68.4375 C0,70.958336 2.0360704,73 4.55,73 L27.3,73 L27.3,63.875 L9.1,63.875 L9.1,9.125 L263.9,9.125 L263.9,63.875 L245.7,63.875 L245.7,73 L268.45,73 C270.96393,73 273,70.958336 273,68.4375 L273,4.5625 C273,2.041664 270.96393,0 268.45,0" id="Fill-3"></path>
            <path d="M63.1666667,58.4768427 C69.6188267,56.7846756 74.6594667,51.7134862 76.34144,45.2222222 L113.504133,45.2222222 C104.648107,53.577408 99.6890133,65.2874169 99.8333333,77.5 C99.6890133,89.7125831 104.648107,101.422592 113.504133,109.777778 L76.34144,109.777778 C74.6594667,103.286514 69.6188267,98.2153244 63.1666667,96.5231573 L63.1666667,58.4768427 Z M196.65856,45.2222222 C198.340533,51.7134862 203.381173,56.7846756 209.833333,58.4768427 L209.833333,96.5231573 C203.381173,98.2153244 198.340533,103.286514 196.65856,109.777778 L159.495867,109.777778 C168.351893,101.422592 173.310987,89.7125831 173.166667,77.5 C173.310987,65.2874169 168.351893,53.577408 159.495867,45.2222222 L196.65856,45.2222222 Z M109,77.5 C109,59.702144 121.333787,45.2222222 136.5,45.2222222 C151.666213,45.2222222 164,59.702144 164,77.5 C164,95.297856 151.666213,109.777778 136.5,109.777778 C121.333787,109.777778 109,95.297856 109,77.5 Z M58.5833333,105.166667 C63.6468533,105.166667 67.75,109.294681 67.75,114.388889 C67.75,116.936583 69.8009867,119 72.3333333,119 L200.666667,119 C203.199013,119 205.25,116.936583 205.25,114.388889 C205.25,109.294681 209.353147,105.166667 214.416667,105.166667 C216.949013,105.166667 219,103.10325 219,100.555556 L219,54.4444444 C219,51.8967502 216.949013,49.8333333 214.416667,49.8333333 C209.353147,49.8333333 205.25,45.7053191 205.25,40.6111111 C205.25,38.0634169 203.199013,36 200.666667,36 L72.3333333,36 C69.8009867,36 67.75,38.0634169 67.75,40.6111111 C67.75,45.7053191 63.6468533,49.8333333 58.5833333,49.8333333 C56.0509867,49.8333333 54,51.8967502 54,54.4444444 L54,100.555556 C54,103.10325 56.0509867,105.166667 58.5833333,105.166667 Z" id="Fill-4"></path>
        </g>
    </g>
</svg>